<?xml version="1.0" encoding="UTF-8"?>
<svg version="1.1" xmlns="http://www.w3.org/2000/svg" width="512" height="512">
<path d="M0 0 C1.45108658 0.00273422 1.45108658 0.00273422 2.93148804 0.00552368 C17.26440977 0.05095174 31.21023917 0.55983928 45.3125 3.3125 C46.65803955 3.55395752 46.65803955 3.55395752 48.03076172 3.80029297 C107.84088904 14.62287989 165.35495829 48.68064457 202.3125 97.3125 C202.72918945 97.85277832 203.14587891 98.39305664 203.57519531 98.94970703 C211.2584873 108.9447116 218.00092968 119.40459036 224.3125 130.3125 C224.70679199 130.98974121 225.10108398 131.66698242 225.50732422 132.36474609 C238.68961173 155.2833756 247.29510918 180.85822563 252.625 206.6875 C252.77243652 207.39817627 252.91987305 208.10885254 253.07177734 208.84106445 C256.05713787 224.48358366 256.6873098 240.11919606 256.625 256 C256.62226578 257.45108658 256.62226578 257.45108658 256.61947632 258.93148804 C256.57404826 273.26440977 256.06516072 287.21023917 253.3125 301.3125 C253.15152832 302.20952637 252.99055664 303.10655273 252.82470703 304.03076172 C242.00212011 363.84088904 207.94435543 421.35495829 159.3125 458.3125 C158.77222168 458.72918945 158.23194336 459.14587891 157.67529297 459.57519531 C147.6802884 467.2584873 137.22040964 474.00092968 126.3125 480.3125 C125.63525879 480.70679199 124.95801758 481.10108398 124.26025391 481.50732422 C101.3416244 494.68961173 75.76677437 503.29510918 49.9375 508.625 C49.22682373 508.77243652 48.51614746 508.91987305 47.78393555 509.07177734 C32.14141634 512.05713787 16.50580394 512.6873098 0.625 512.625 C-0.34239105 512.62317719 -1.3097821 512.62135437 -2.30648804 512.61947632 C-16.63940977 512.57404826 -30.58523917 512.06516072 -44.6875 509.3125 C-45.58452637 509.15152832 -46.48155273 508.99055664 -47.40576172 508.82470703 C-107.21588904 498.00212011 -164.72995829 463.94435543 -201.6875 415.3125 C-202.10418945 414.77222168 -202.52087891 414.23194336 -202.95019531 413.67529297 C-210.6334873 403.6802884 -217.37592968 393.22040964 -223.6875 382.3125 C-224.08179199 381.63525879 -224.47608398 380.95801758 -224.88232422 380.26025391 C-238.06461173 357.3416244 -246.67010918 331.76677437 -252 305.9375 C-252.14743652 305.22682373 -252.29487305 304.51614746 -252.44677734 303.78393555 C-255.43213787 288.14141634 -256.0623098 272.50580394 -256 256.625 C-255.99817719 255.65760895 -255.99635437 254.6902179 -255.99447632 253.69351196 C-255.94904826 239.36059023 -255.44016072 225.41476083 -252.6875 211.3125 C-252.44604248 209.96696045 -252.44604248 209.96696045 -252.19970703 208.59423828 C-241.37712011 148.78411096 -207.31935543 91.27004171 -158.6875 54.3125 C-158.14722168 53.89581055 -157.60694336 53.47912109 -157.05029297 53.04980469 C-147.0552884 45.3665127 -136.59540964 38.62407032 -125.6875 32.3125 C-125.01025879 31.91820801 -124.33301758 31.52391602 -123.63525391 31.11767578 C-100.7166244 17.93538827 -75.14177437 9.32989082 -49.3125 4 C-48.60182373 3.85256348 -47.89114746 3.70512695 -47.15893555 3.55322266 C-31.51641634 0.56786213 -15.88080394 -0.0623098 0 0 Z M-155.9765625 84.7890625 C-158.23005176 86.88669083 -160.52090164 88.8930911 -162.875 90.875 C-203.10781924 125.98577654 -226.98038068 183.56287845 -231.46044922 235.80664062 C-235.39203306 296.51367707 -218.81549792 358.43358369 -178.28222656 404.92431641 C-175.95860997 407.51518856 -173.59285198 410.06432417 -171.2109375 412.6015625 C-169.11330917 414.85505176 -167.1069089 417.14590164 -165.125 419.5 C-130.01422346 459.73281924 -72.43712155 483.60538068 -20.19335938 488.08544922 C40.51367707 492.01703306 102.43358369 475.44049792 148.92431641 434.90722656 C151.51518856 432.58360997 154.06432417 430.21785198 156.6015625 427.8359375 C158.85505176 425.73830917 161.14590164 423.7319089 163.5 421.75 C203.73281924 386.63922346 227.60538068 329.06212155 232.08544922 276.81835938 C236.01703306 216.11132293 219.44049792 154.19141631 178.90722656 107.70068359 C176.58360997 105.10981144 174.21785198 102.56067583 171.8359375 100.0234375 C169.73830917 97.76994824 167.7319089 95.47909836 165.75 93.125 C130.63922346 52.89218076 73.06212155 29.01961932 20.81835938 24.53955078 C-44.07570975 20.33680118 -108.09876386 39.84223168 -155.9765625 84.7890625 Z " fill="#000000" transform="translate(255.6875,-0.3125)"/>
<path d="M0 0 C0.96955124 0.00141495 1.93910248 0.0028299 2.93803406 0.00428772 C6.02512742 0.00987112 9.11214742 0.02242061 12.19921875 0.03515625 C14.29622291 0.04017339 16.39322821 0.04473593 18.49023438 0.04882812 C23.62244662 0.05898288 28.75450087 0.0785616 33.88671875 0.09765625 C33.88671875 11.97765625 33.88671875 23.85765625 33.88671875 36.09765625 C20.76171875 36.41015625 20.76171875 36.41015625 16.65576172 36.4855957 C15.03371826 36.53526489 15.03371826 36.53526489 13.37890625 36.5859375 C11.72930908 36.62521362 11.72930908 36.62521362 10.04638672 36.6652832 C6.42916141 37.16026899 3.97888399 38.1708071 0.88671875 40.09765625 C-0.19283337 43.3363126 -0.31769866 45.88921463 -0.4296875 49.296875 C-0.46779541 50.38572998 -0.50590332 51.47458496 -0.54516602 52.59643555 C-0.58826904 53.97871338 -0.63137207 55.36099121 -0.67578125 56.78515625 C-0.82015625 61.17828125 -0.96453125 65.57140625 -1.11328125 70.09765625 C10.43671875 70.09765625 21.98671875 70.09765625 33.88671875 70.09765625 C32.56671875 81.64765625 31.24671875 93.19765625 29.88671875 105.09765625 C19.65671875 105.09765625 9.42671875 105.09765625 -1.11328125 105.09765625 C-1.11328125 139.74765625 -1.11328125 174.39765625 -1.11328125 210.09765625 C-16.95328125 210.09765625 -32.79328125 210.09765625 -49.11328125 210.09765625 C-49.11328125 175.44765625 -49.11328125 140.79765625 -49.11328125 105.09765625 C-56.70328125 105.09765625 -64.29328125 105.09765625 -72.11328125 105.09765625 C-72.11328125 93.54765625 -72.11328125 81.99765625 -72.11328125 70.09765625 C-64.52328125 70.09765625 -56.93328125 70.09765625 -49.11328125 70.09765625 C-49.13648438 68.22722656 -49.1596875 66.35679687 -49.18359375 64.4296875 C-49.20236908 61.92318111 -49.22056737 59.41667036 -49.23828125 56.91015625 C-49.25503906 55.68361328 -49.27179688 54.45707031 -49.2890625 53.19335938 C-49.36873482 38.09545564 -48.07475799 22.50152443 -37.11328125 11.09765625 C-30.68458196 5.47579776 -23.28431602 3.16158343 -15.11328125 1.09765625 C-14.43467041 0.91895996 -13.75605957 0.74026367 -13.05688477 0.55615234 C-8.70464757 -0.12175273 -4.39769124 -0.02423316 0 0 Z " fill="#000000" transform="translate(281.11328125,150.90234375)"/>
</svg>
