<?xml version="1.0" encoding="UTF-8"?>
<svg version="1.1" xmlns="http://www.w3.org/2000/svg" width="500" height="500">
<path d="M0 0 C0.99338379 0.48339844 0.99338379 0.48339844 2.00683594 0.9765625 C11.69486791 5.74069216 20.42203692 11.46149684 29 18 C29.94101562 18.71542969 30.88203125 19.43085937 31.8515625 20.16796875 C36.929932 24.13400656 41.55178819 28.34435863 46 33 C47.2065625 34.2065625 47.2065625 34.2065625 48.4375 35.4375 C49.283125 36.283125 50.12875 37.12875 51 38 C51.54914063 38.49113281 52.09828125 38.98226562 52.6640625 39.48828125 C79.98372497 64.84047832 97.38638948 108.93767679 99.17700195 145.62670898 C99.99903977 197.53299299 85.2397934 235.46044238 57.04394531 278.26245117 C52.602943 285.00589497 48.21072842 291.77354482 43.9375 298.625 C39.09767719 306.37942177 34.03143485 313.97410312 28.9375 321.5625 C23.55448523 329.58261627 18.29276606 337.64136356 13.33178711 345.93164062 C6.98173252 356.46285523 0.09637887 366.66448845 -6.66821289 376.93197632 C-9.82691722 381.7289158 -12.95354491 386.54572206 -16.0625 391.375 C-19.26470575 396.34575014 -22.51463853 401.27974748 -25.8125 406.1875 C-29.82690251 412.16828747 -33.70867201 418.22719525 -37.5625 424.3125 C-43.53064561 433.7346317 -49.59231511 443.09213093 -55.72363281 452.40893555 C-59.14242347 457.60707622 -62.52996453 462.81806892 -65.828125 468.09375 C-66.41907959 469.0307373 -67.01003418 469.96772461 -67.61889648 470.93310547 C-68.72125108 472.68524066 -69.81254113 474.44440227 -70.89086914 476.21142578 C-71.37676514 476.9795459 -71.86266113 477.74766602 -72.36328125 478.5390625 C-72.77876221 479.21146973 -73.19424316 479.88387695 -73.62231445 480.57666016 C-74.07695068 481.0463623 -74.53158691 481.51606445 -75 482 C-76.32 482 -77.64 482 -79 482 C-80.85262742 479.61230657 -82.3886375 477.32690867 -83.9375 474.75 C-84.91461466 473.18182415 -85.89251158 471.61413551 -86.87109375 470.046875 C-87.38140137 469.21994141 -87.89170898 468.39300781 -88.41748047 467.54101562 C-91.04709956 463.31869605 -93.77794586 459.16307034 -96.5 455 C-97.60859125 453.29591 -98.71666775 451.59148503 -99.82421875 449.88671875 C-100.36095215 449.06091309 -100.89768555 448.23510742 -101.45068359 447.38427734 C-106.93436383 438.94532033 -112.408286 430.50078545 -117.8203125 422.015625 C-124.29235537 411.86952713 -130.78297741 401.74498904 -137.48754883 391.75073242 C-146.20285562 378.75060825 -154.78240365 365.65692889 -163.0144043 352.3449707 C-167.0520674 345.85038508 -171.24556058 339.45816421 -175.4375 333.0625 C-175.80902191 332.49562469 -176.18054382 331.92874939 -176.56332397 331.34469604 C-178.38624051 328.56369749 -180.20967129 325.78303656 -182.03320312 323.00244141 C-189.24448137 311.99396328 -196.33446483 300.91113095 -203.37866211 289.79516602 C-207.37310524 283.50921098 -211.43713724 277.27193591 -215.53491211 271.05297852 C-231.41904394 246.93978661 -243.51281936 224.38996491 -250 196 C-250.17934082 195.21818359 -250.35868164 194.43636719 -250.54345703 193.63085938 C-255.71059433 169.76042966 -254.83493151 142.62456116 -249 119 C-248.76394043 118.02417969 -248.52788086 117.04835937 -248.28466797 116.04296875 C-241.20292173 87.58813796 -227.00389895 58.81807604 -205.44140625 38.40625 C-203.82827053 36.89716225 -203.82827053 36.89716225 -202.0625 34.5 C-183.02037135 11.41863193 -151.03288514 -3.6830145 -123 -12 C-121.96875 -12.31710938 -120.9375 -12.63421875 -119.875 -12.9609375 C-81.06153951 -23.85026947 -35.73112743 -17.60518173 0 0 Z M-137.03515625 95.90625 C-155.61983666 115.1106203 -164.4377764 136.2721718 -164.2980957 163.07666016 C-163.79962804 187.46892476 -153.26148552 207.55919652 -136.0925293 224.44238281 C-118.81140246 240.68278006 -96.45167393 247.44475223 -73.0234375 247.2109375 C-47.30137714 246.19806103 -27.03921651 234.03074126 -9.75 215.625 C6.95149481 196.04752164 11.6719728 173.15065084 10 148 C7.21730476 124.84208909 -5.40026156 104.87090275 -23 90 C-57.16142384 63.37290097 -106.28015885 65.21876122 -137.03515625 95.90625 Z " fill="#030303" transform="translate(327,17)"/>
<path d="M0 0 C0.66 0.33 1.32 0.66 2 1 C-3.33333333 6.33333333 -8.66666667 11.66666667 -14 17 C-14.66 16.67 -15.32 16.34 -16 16 C-12.21309138 11.36103694 -8.30424428 7.3506875 -3.734375 3.48046875 C-1.91019463 1.96268408 -1.91019463 1.96268408 0 0 Z " fill="#727272" transform="translate(137,40)"/>
</svg>
