<?xml version="1.0" encoding="UTF-8"?>
<svg version="1.1" xmlns="http://www.w3.org/2000/svg" width="512" height="512">
<path d="M0 0 C1.1128797 -0.00297112 2.2257594 -0.00594224 3.37236273 -0.0090034 C7.09750281 -0.01766744 10.82261066 -0.01919673 14.54776001 -0.02069092 C17.22068431 -0.02532082 19.89360572 -0.03032549 22.56652832 -0.03573608 C29.8273526 -0.04929133 37.08817135 -0.05534024 44.34900618 -0.05974674 C48.8895285 -0.06251491 53.43004871 -0.06675339 57.97056961 -0.07125092 C70.56041772 -0.08344179 83.15026414 -0.09374024 95.74011803 -0.09712601 C96.54522111 -0.09734557 97.35032419 -0.09756514 98.17982433 -0.09779136 C98.98678057 -0.09800964 99.79373681 -0.09822791 100.62514627 -0.09845281 C102.26015814 -0.09889626 103.89517001 -0.09934282 105.53018188 -0.09979248 C106.34119254 -0.10001391 107.1522032 -0.10023534 107.98778994 -0.10046348 C121.10940128 -0.10440585 134.23095689 -0.12184352 147.35254674 -0.145152 C160.84859074 -0.1689305 174.34460687 -0.18133087 187.84067214 -0.18249393 C195.40827129 -0.18340724 202.97579789 -0.18907213 210.54337692 -0.20731354 C216.99164646 -0.22280278 223.43982104 -0.2277836 229.88810568 -0.21957543 C233.17127386 -0.21569934 236.4542137 -0.21811848 239.73736572 -0.23063278 C275.12624652 -0.35753351 307.50670792 7.65391786 334.87051392 31.14044189 C335.70324829 31.85071533 336.53598267 32.56098877 337.39395142 33.29278564 C360.92546595 53.89191145 375.61937929 81.43483102 380.87051392 112.14044189 C381.12510439 113.59549102 381.12510439 113.59549102 381.3848381 115.07993507 C382.09545417 120.12956939 382.01522082 125.1796965 382.01095581 130.26992798 C382.01541249 131.93924753 382.01541249 131.93924753 382.01995921 133.64229071 C382.02862325 137.36743079 382.03015254 141.09253864 382.03164673 144.81768799 C382.03627663 147.49061229 382.0412813 150.1635337 382.04669189 152.8364563 C382.06024714 160.09728058 382.06629605 167.35809932 382.07070255 174.61893415 C382.07347072 179.15945648 382.0777092 183.69997669 382.08220673 188.24049759 C382.0943976 200.8303457 382.10469605 213.42019212 382.10808182 226.01004601 C382.10830138 226.81514909 382.10852095 227.62025217 382.10874717 228.44975231 C382.10896545 229.25670855 382.10918372 230.06366479 382.10940862 230.89507425 C382.10985207 232.53008612 382.11029863 234.16509799 382.11074829 235.80010986 C382.11096972 236.61112052 382.11119115 237.42213118 382.11141929 238.25771792 C382.11536166 251.37932926 382.13279933 264.50088487 382.15610781 277.62247472 C382.17988631 291.11851872 382.19228668 304.61453484 382.19344974 318.11060011 C382.19436305 325.67819926 382.20002794 333.24572586 382.21826935 340.8133049 C382.23375859 347.26157444 382.23873942 353.70974902 382.23053125 360.15803365 C382.22665515 363.44120184 382.22907429 366.72414168 382.24158859 370.0072937 C382.36848932 405.39617449 374.35703795 437.7766359 350.87051392 465.14044189 C350.16024048 465.97317627 349.44996704 466.80591064 348.71817017 467.66387939 C328.11904437 491.19539393 300.57612479 505.88930727 269.87051392 511.14044189 C268.41546479 511.39503237 268.41546479 511.39503237 266.93102074 511.65476608 C261.88138642 512.36538215 256.83125931 512.2851488 251.74102783 512.28088379 C250.07170828 512.28534047 250.07170828 512.28534047 248.3686651 512.28988719 C244.64352502 512.29855123 240.91841717 512.30008052 237.19326782 512.30157471 C234.52034352 512.30620461 231.84742212 512.31120928 229.17449951 512.31661987 C221.91367523 512.33017512 214.65285649 512.33622403 207.39202166 512.34063053 C202.85149933 512.3433987 198.31097912 512.34763718 193.77045822 512.3521347 C181.18061011 512.36432557 168.59076369 512.37462403 156.00090981 512.3780098 C154.79325519 512.37833915 154.79325519 512.37833915 153.5612035 512.37867515 C152.75424726 512.37889343 151.94729102 512.3791117 151.11588156 512.3793366 C149.48086969 512.37978005 147.84585782 512.38022661 146.21084595 512.38067627 C144.99432996 512.38100841 144.99432996 512.38100841 143.75323789 512.38134727 C130.63162655 512.38528964 117.51007094 512.40272731 104.3884811 512.42603579 C90.89243709 512.44981429 77.39642097 512.46221466 63.9003557 512.46337771 C56.33275655 512.46429103 48.76522995 512.46995592 41.19765091 512.48819733 C34.74938137 512.50368656 28.30120679 512.50866739 21.85292216 512.50045922 C18.56975397 512.49658312 15.28681413 512.49900227 12.00366211 512.51151657 C-23.38521868 512.6384173 -55.76568009 504.62696593 -83.12948608 481.14044189 C-84.37858765 480.07503174 -84.37858765 480.07503174 -85.65292358 478.98809814 C-109.18443812 458.38897234 -123.87835146 430.84605277 -129.12948608 400.14044189 C-129.29921307 399.17040915 -129.46894005 398.2003764 -129.64381027 397.20094872 C-130.35442634 392.1513144 -130.27419299 387.10118729 -130.26992798 382.01095581 C-130.2728991 380.89807611 -130.27587022 379.78519641 -130.27893138 378.63859308 C-130.28759542 374.913453 -130.28912471 371.18834515 -130.2906189 367.4631958 C-130.2952488 364.7902715 -130.30025347 362.11735009 -130.30566406 359.44442749 C-130.31921931 352.18360321 -130.32526822 344.92278446 -130.32967472 337.66194963 C-130.33244289 333.12142731 -130.33668137 328.5809071 -130.34117889 324.0403862 C-130.35336976 311.45053809 -130.36366822 298.86069167 -130.36705399 286.27083778 C-130.36727355 285.4657347 -130.36749312 284.66063162 -130.36771934 283.83113148 C-130.36793762 283.02417524 -130.36815589 282.217219 -130.36838078 281.38580954 C-130.36882424 279.75079767 -130.3692708 278.1157858 -130.36972046 276.48077393 C-130.36994189 275.66976327 -130.37016332 274.85875261 -130.37039146 274.02316587 C-130.37433383 260.90155453 -130.3917715 247.77999892 -130.41507998 234.65840907 C-130.43885848 221.16236507 -130.45125885 207.66634895 -130.4524219 194.17028368 C-130.45333522 186.60268452 -130.45900011 179.03515792 -130.47724152 171.46757889 C-130.49273075 165.01930935 -130.49771158 158.57113477 -130.48950341 152.12285013 C-130.48562731 148.83968195 -130.48804646 145.55674211 -130.50056076 142.27359009 C-130.62746149 106.88470929 -122.61601012 74.50424789 -99.12948608 47.14044189 C-98.41921265 46.30770752 -97.70893921 45.47497314 -96.97714233 44.61700439 C-76.37801653 21.08548986 -48.83509696 6.39157652 -18.12948608 1.14044189 C-16.67443696 0.88585142 -16.67443696 0.88585142 -15.1899929 0.62611771 C-10.14035859 -0.08449836 -5.09023148 -0.00426501 0 0 Z M-63.12948608 59.14044189 C-64.46946655 60.33927002 -64.46946655 60.33927002 -65.83651733 61.56231689 C-82.6282295 77.43811749 -95.29084426 101.0956366 -96.22457075 124.5264883 C-96.26403061 127.36992264 -96.27236242 130.21189204 -96.26992798 133.05560303 C-96.2728991 134.14539255 -96.27587022 135.23518207 -96.27893138 136.35799551 C-96.28759367 140.0048865 -96.28912455 143.65174456 -96.2906189 147.29864502 C-96.29524887 149.91570099 -96.30027378 152.53275628 -96.30566406 155.14981079 C-96.31921717 162.25761307 -96.32526765 169.36540969 -96.32967472 176.47322273 C-96.33244279 180.91724389 -96.33668122 185.36126289 -96.34117889 189.80528259 C-96.35336862 202.12577426 -96.36366786 214.44626421 -96.36705399 226.76676178 C-96.36727355 227.55456232 -96.36749312 228.34236285 -96.36771934 229.15403613 C-96.36793762 229.94365361 -96.36815589 230.73327108 -96.36838078 231.54681635 C-96.36882424 233.14670976 -96.3692708 234.74660317 -96.36972046 236.34649658 C-96.36994189 237.14008817 -96.37016332 237.93367977 -96.37039146 238.75131959 C-96.37433534 251.59622195 -96.39177818 264.44106744 -96.41507998 277.28594786 C-96.43884751 290.4949591 -96.45125832 303.70394188 -96.4524219 316.91297483 C-96.45333574 324.32066161 -96.45901406 331.7282743 -96.47724152 339.13594055 C-96.49271575 345.44666012 -96.4977202 351.75728271 -96.48950341 358.06801766 C-96.48562233 361.28208083 -96.48806514 364.49591034 -96.50056076 367.70995712 C-96.60727933 396.88418155 -91.11865908 422.81440515 -71.12948608 445.14044189 C-69.93065796 446.48042236 -69.93065796 446.48042236 -68.70761108 447.84747314 C-52.83181049 464.63918531 -29.17429138 477.30180007 -5.74343967 478.23552656 C-2.90000534 478.27498642 -0.05803594 478.28331823 2.78567505 478.28088379 C3.87546457 478.28385491 4.96525409 478.28682603 6.08806753 478.28988719 C9.73495852 478.29854948 13.38181659 478.30008036 17.02871704 478.30157471 C19.64577301 478.30620469 22.2628283 478.31122959 24.87988281 478.31661987 C31.98768509 478.33017298 39.09548171 478.33622346 46.20329475 478.34063053 C50.64731591 478.3433986 55.09133492 478.34763703 59.53535461 478.3521347 C71.85584628 478.36432443 84.17633623 478.37462367 96.4968338 478.3780098 C97.67853461 478.37833915 97.67853461 478.37833915 98.88410816 478.37867515 C100.06853436 478.37900256 100.06853436 478.37900256 101.27688837 478.3793366 C102.87678178 478.37978005 104.47667519 478.38022661 106.0765686 478.38067627 C106.8701602 478.3808977 107.66375179 478.38111913 108.48139161 478.38134727 C121.32629397 478.38529116 134.17113946 478.40273399 147.01601988 478.42603579 C160.22503112 478.44980332 173.4340139 478.46221413 186.64304686 478.46337771 C194.05073363 478.46429155 201.45834632 478.46996987 208.86601257 478.48819733 C215.17673214 478.50367156 221.48735473 478.50867601 227.79808968 478.50045922 C231.01215286 478.49657814 234.22598236 478.49902095 237.44002914 478.51151657 C270.27558196 478.63162819 296.5257043 470.98143665 320.55801392 447.76544189 C325.31714701 442.88599364 329.32646286 437.9592792 332.87051392 432.14044189 C333.85664673 430.52782471 333.85664673 430.52782471 334.86270142 428.88262939 C343.81062199 413.54695816 348.02607742 396.88908909 348.01095581 379.22528076 C348.01392693 378.13549124 348.01689806 377.04570172 348.01995921 375.92288828 C348.0286215 372.27599729 348.03015238 368.62913922 348.03164673 364.98223877 C348.03627671 362.3651828 348.04130161 359.74812751 348.04669189 357.131073 C348.060245 350.02327072 348.06629548 342.9154741 348.07070255 335.80766106 C348.07347063 331.3636399 348.07770905 326.9196209 348.08220673 322.4756012 C348.09439645 310.15510953 348.1046957 297.83461958 348.10808182 285.51412201 C348.10830138 284.72632147 348.10852095 283.93852094 348.10874717 283.12684765 C348.10896545 282.33723018 348.10918372 281.54761271 348.10940862 280.73406744 C348.10985207 279.13417403 348.11029864 277.53428062 348.11074829 275.93438721 C348.11096972 275.14079562 348.11119115 274.34720402 348.11141929 273.5295642 C348.11536318 260.68466184 348.13280602 247.83981635 348.15610781 234.99493593 C348.17987535 221.78592469 348.19228615 208.57694191 348.19344974 195.36790895 C348.19436357 187.96022218 348.20004189 180.55260949 348.21826935 173.14494324 C348.23374359 166.83422367 348.23874803 160.52360108 348.23053125 154.21286613 C348.22665016 150.99880295 348.22909297 147.78497345 348.24158859 144.57092667 C348.36170021 111.73537385 340.71150867 85.48525151 317.49551392 61.45294189 C312.61606566 56.6938088 307.68935123 52.68449295 301.87051392 49.14044189 C300.25789673 48.15430908 300.25789673 48.15430908 298.61270142 47.14825439 C283.27703018 38.20033382 266.61916111 33.98487839 248.95535278 34 C247.86556326 33.99702888 246.77577374 33.99405776 245.6529603 33.9909966 C242.00606931 33.98233431 238.35921125 33.98080343 234.71231079 33.97930908 C232.09525482 33.9746791 229.47819953 33.9696542 226.86114502 33.96426392 C219.75334274 33.95071081 212.64554613 33.94466033 205.53773308 33.94025326 C201.09371192 33.93748519 196.64969292 33.93324676 192.20567322 33.92874908 C179.88518155 33.91655936 167.5646916 33.90626012 155.24419403 33.90287399 C154.06249323 33.90254464 154.06249323 33.90254464 152.85691968 33.90220864 C151.67249347 33.90188122 151.67249347 33.90188122 150.46413946 33.90154719 C148.86424605 33.90110374 147.26435264 33.90065717 145.66445923 33.90020752 C144.87086764 33.89998609 144.07727605 33.89976466 143.25963622 33.89953652 C130.41473386 33.89559263 117.56988837 33.87814979 104.72500795 33.854848 C91.51599671 33.83108046 78.30701393 33.81866966 65.09798098 33.81750607 C57.6902942 33.81659224 50.28268151 33.81091392 42.87501526 33.79268646 C36.56429569 33.77721223 30.2536731 33.77220778 23.94293815 33.78042457 C20.72887498 33.78430565 17.51504547 33.78186284 14.30099869 33.76936722 C-14.87322574 33.66264864 -40.80344934 39.1512689 -63.12948608 59.14044189 Z " fill="#000000" transform="translate(130.12948608398438,-0.14044189453125)"/>
<path d="M0 0 C5.6036097 3.90238066 9.3892057 4.2567612 16.078125 3.3203125 C17.35171875 3.07023437 18.6253125 2.82015625 19.9375 2.5625 C20.67935547 2.42166992 21.42121094 2.28083984 22.18554688 2.13574219 C29.00912365 0.8178719 35.75906862 -0.53914632 42.2578125 -3.04296875 C47.67447517 -5.0957804 51.74704018 -5.17716004 57.0625 -2.9375 C61.58165057 -0.41416106 64.14515919 2.71166936 65.9375 7.5625 C67.83945568 17.00991918 64.00308566 26.72041439 60.9375 35.5625 C60.70877197 36.30290527 60.48004395 37.04331055 60.24438477 37.80615234 C58.34739906 43.31550121 55.53116704 47.76210247 52.05859375 52.40625 C40.36508781 68.06717465 33.4058588 79.58279504 33.04785156 99.71582031 C31.53863653 138.64822585 7.5930253 177.71320773 -18.59960938 205.03222656 C-19.96959091 206.46531139 -21.32143834 207.91567025 -22.671875 209.3671875 C-35.52029373 222.79962527 -50.7149974 232.87800284 -67.0625 241.5625 C-67.6930127 241.89975098 -68.32352539 242.23700195 -68.97314453 242.58447266 C-114.07496556 266.26694792 -170.04259787 268.43056322 -218.15771484 253.4765625 C-231.51322001 249.10021551 -244.266249 243.3945029 -256.4375 236.375 C-257.14527588 235.97120117 -257.85305176 235.56740234 -258.58227539 235.15136719 C-264.17479004 231.81780052 -268.22098314 228.00780901 -270.0625 221.5625 C-270.56882697 216.09416877 -269.73102225 212.36584006 -267.0625 207.5625 C-262.05361872 202.19584149 -256.75320779 200.759167 -249.48291016 200.4543457 C-246.71571956 200.47337553 -243.95352374 200.54337654 -241.1875 200.625 C-225.246181 200.83416325 -210.82491553 198.65530771 -196.0625 192.5625 C-199.17941052 189.35254738 -202.38453348 186.38497889 -205.81860352 183.51879883 C-232.88544197 160.9157341 -253.92925233 133.49707865 -258.0625 97.5625 C-258.31676465 93.32781397 -258.34896501 89.11635634 -258.3125 84.875 C-258.30645752 83.71871094 -258.30041504 82.56242187 -258.29418945 81.37109375 C-258.04756664 59.32151927 -256.25218844 37.21405502 -250.75 15.8125 C-250.57364014 15.08546875 -250.39728027 14.3584375 -250.21557617 13.609375 C-248.57025329 7.65817761 -245.49649696 2.55981204 -240.04516602 -0.61083984 C-235.66368597 -2.43767046 -230.69845435 -1.91923885 -226.0625 -1.4375 C-220.05151544 1.27333617 -215.60865507 6.86367554 -211.0625 11.5625 C-210.216875 12.408125 -209.37125 13.25375 -208.5 14.125 C-207.13521541 15.48978459 -205.78223209 16.86761925 -204.4765625 18.2890625 C-194.72026193 28.62168463 -182.46916805 35.8640642 -170.0625 42.5625 C-169.17046875 43.07296875 -168.2784375 43.5834375 -167.359375 44.109375 C-153.70876908 51.53338875 -138.01913176 55.63080093 -123.0625 59.5625 C-122.93294922 58.29019531 -122.93294922 58.29019531 -122.80078125 56.9921875 C-120.40636227 37.00208412 -112.09879118 21.66044399 -98.0625 7.5625 C-97.43988281 6.90507812 -96.81726563 6.24765625 -96.17578125 5.5703125 C-71.84925784 -18.15488112 -26.79442201 -20.27302829 0 0 Z M-72.0625 30.5625 C-72.866875 31.09875 -73.67125 31.635 -74.5 32.1875 C-84.32513418 41.29372193 -88.29762497 52.18232033 -89.08203125 65.265625 C-89.06290561 68.49403364 -88.6518281 71.39486144 -88.0625 74.5625 C-87.50760769 79.93858782 -87.60892853 84.45820926 -90.6875 89.0546875 C-93.97790292 92.66291343 -97.67946098 94.22316758 -102.4765625 94.90625 C-141.65492751 96.26112141 -182.40139558 78.92472204 -213.22949219 55.92285156 C-216.14364119 53.76014003 -219.10437699 51.6645254 -222.0625 49.5625 C-224.68841116 81.15374764 -226.9690322 109.83952154 -205.5625 135.63671875 C-204.7375 136.60222656 -203.9125 137.56773437 -203.0625 138.5625 C-202.32 139.45582031 -201.5775 140.34914063 -200.8125 141.26953125 C-195.4693301 147.48096626 -189.49764837 152.52071709 -183.0625 157.5625 C-182.26070312 158.23023438 -181.45890625 158.89796875 -180.6328125 159.5859375 C-175.97148825 163.45254417 -171.16651895 166.88147165 -166.0625 170.125 C-165.16881714 170.69432251 -165.16881714 170.69432251 -164.25708008 171.27514648 C-161.54192887 172.99999162 -158.82057938 174.71235109 -156.0859375 176.40625 C-150.67554831 179.91741703 -146.56365531 183.05358439 -145.0625 189.5625 C-144.50667031 195.00789401 -145.34643062 199.27983402 -148.75 203.625 C-158.41204343 213.38503575 -171.99184044 219.38103633 -184.0625 225.5625 C-184.0625 225.8925 -184.0625 226.2225 -184.0625 226.5625 C-137.62500793 231.89139253 -94.06956546 223.50659079 -56.89746094 194.04980469 C-49.63827674 188.16596353 -42.93101755 181.84404455 -37.0625 174.5625 C-36.29292969 173.61890625 -35.52335938 172.6753125 -34.73046875 171.703125 C-13.06596323 144.65723211 -0.82331044 112.0083698 1.16699219 77.4777832 C1.90419886 66.17162306 6.11434231 59.36685865 12.625 50.1875 C14.00794869 48.22419544 15.38707127 46.25818824 16.76171875 44.2890625 C17.37104248 43.42877441 17.98036621 42.56848633 18.6081543 41.68212891 C20.11460465 39.69710776 20.11460465 39.69710776 19.9375 37.5625 C18.99003906 37.67078125 18.99003906 37.67078125 18.0234375 37.78125 C14.99712753 38.09521876 11.97190564 38.33943401 8.9375 38.5625 C7.76058594 38.65402344 6.58367187 38.74554688 5.37109375 38.83984375 C-1.54607748 39.1457812 -5.91487862 39.05136697 -11.15234375 34.34765625 C-11.78269531 33.75855469 -12.41304687 33.16945313 -13.0625 32.5625 C-31.32799162 18.239644 -52.98826999 16.69033272 -72.0625 30.5625 Z " fill="#000000" transform="translate(358.0625,131.4375)"/>
</svg>
